<?xml version="1.0" encoding="iso-8859-1"?>
<!-- Generator: Adobe Illustrator 19.0.0, SVG Export Plug-In . SVG Version: 6.00 Build 0)  -->
<svg version="1.1" id="Layer_1" xmlns="http://www.w3.org/2000/svg" xmlns:xlink="http://www.w3.org/1999/xlink" x="0px" y="0px"
	 viewBox="0 0 512.128 512.128" style="enable-background:new 0 0 512.128 512.128;" xml:space="preserve">
<rect x="0.128" y="99.12" style="fill:#848484;" width="512" height="368.08"/>
<rect x="16.112" y="115.176" width="480" height="336"/>
<g style="opacity:0.35;">
	<path style="fill:#FFFFFF;" d="M492.128,119.176v328h-472v-328L492.128,119.176 M496.128,115.176h-480v336h480V115.176
		L496.128,115.176z"/>
</g>
<path d="M512,99.12V73.68c0-15.816-12.936-28.752-28.752-28.752h-368.24H28.752C12.936,44.928,0,57.864,0,73.68v25.432h512V99.12z"
	/>
<g style="opacity:0.25;">
	<path style="fill:#FFFFFF;" d="M147.04,44.928h-32.024H28.752C12.936,44.928,0,57.864,0,73.68v25.432h115.888L147.04,44.928z"/>
</g>
<circle style="fill:#FF6600;" cx="40.536" cy="72.024" r="8.184"/>
<circle style="fill:#848484;" cx="65.096" cy="72.024" r="8.184"/>
<g>
	<circle style="fill:#FFFFFF;" cx="89.656" cy="72.024" r="8.184"/>
	<path style="fill:#FFFFFF;" d="M428.256,86.4H170.88c-7.904,0-14.376-6.472-14.376-14.376l0,0c0-7.904,6.472-14.376,14.376-14.376
		h257.376c7.904,0,14.376,6.472,14.376,14.376l0,0C442.632,79.936,436.16,86.4,428.256,86.4z"/>
</g>
<path d="M180.576,65.464l1.968,7.56c0.432,1.672,0.832,3.2,1.112,4.752h0.096c0.336-1.512,0.832-3.112,1.32-4.72l2.432-7.592h2.28
	l2.304,7.456c0.552,1.784,0.984,3.344,1.32,4.856h0.096c0.24-1.512,0.648-3.08,1.144-4.832l2.12-7.488h2.68l-4.8,14.888h-2.464
	l-2.28-7.112c-0.52-1.656-0.952-3.144-1.32-4.888h-0.064c-0.368,1.784-0.832,3.328-1.352,4.92l-2.4,7.08h-2.464l-4.496-14.888h2.768
	V65.464z"/>
<path d="M203.552,65.464l1.968,7.56c0.432,1.672,0.832,3.2,1.112,4.752h0.096c0.336-1.512,0.832-3.112,1.32-4.72l2.432-7.592h2.28
	l2.304,7.456c0.552,1.784,0.984,3.344,1.32,4.856h0.096c0.24-1.512,0.648-3.08,1.144-4.832l2.12-7.488h2.68l-4.8,14.888h-2.472
	l-2.28-7.112c-0.52-1.656-0.952-3.144-1.32-4.888h-0.064c-0.368,1.784-0.832,3.328-1.352,4.92l-2.4,7.08h-2.464l-4.496-14.888h2.776
	V65.464z"/>
<path d="M226.52,65.464l1.968,7.56c0.432,1.672,0.832,3.2,1.112,4.752h0.096c0.336-1.512,0.832-3.112,1.32-4.72l2.432-7.592h2.28
	l2.304,7.456c0.552,1.784,0.984,3.344,1.32,4.856h0.096c0.24-1.512,0.648-3.08,1.144-4.832l2.12-7.488h2.68l-4.8,14.888h-2.464
	l-2.28-7.112c-0.52-1.656-0.952-3.144-1.32-4.888h-0.064c-0.368,1.784-0.832,3.328-1.352,4.92l-2.4,7.08h-2.464l-4.496-14.888h2.768
	V65.464z"/>
<path d="M246.2,78.768c0-1.144,0.768-1.936,1.84-1.936s1.816,0.8,1.816,1.936c0,1.112-0.704,1.936-1.84,1.936
	C246.928,80.704,246.2,79.872,246.2,78.768z"/>
<g>
	<rect x="461.328" y="70.392" style="fill:#FFFFFF;" width="23" height="4"/>
	<polygon style="fill:#FFFFFF;" points="474.592,84.328 471.752,81.496 480.864,72.392 471.752,63.296 474.592,60.464 
		486.52,72.392 	"/>
</g>
<polygon style="fill:#848484;" points="429.824,67.376 422.168,77.28 414.512,67.376 "/>
<g>
	<path style="fill:#FFFFFF;" d="M80.744,281.088l119.584-55.552v26.408l-90.432,39.608v0.504l90.432,39.608v26.408L80.744,302.52
		C80.744,302.52,80.744,281.088,80.744,281.088z"/>
	<path style="fill:#FFFFFF;" d="M218.792,368.04l53.312-180.632h25.16L243.952,368.04H218.792z"/>
	<path style="fill:#FFFFFF;" d="M431.32,303.264l-119.584,54.808v-26.408l92.432-39.608v-0.504l-92.432-39.608v-26.408
		l119.584,54.808L431.32,303.264L431.32,303.264z"/>
</g>
<g>
</g>
<g>
</g>
<g>
</g>
<g>
</g>
<g>
</g>
<g>
</g>
<g>
</g>
<g>
</g>
<g>
</g>
<g>
</g>
<g>
</g>
<g>
</g>
<g>
</g>
<g>
</g>
<g>
</g>
</svg>
